<svg width="18" height="17" viewBox="0 0 18 17" fill="none" xmlns="http://www.w3.org/2000/svg">
<path id="Vector" d="M4.02699 9.85148H10.5946V8.20956H4.02699V9.85148ZM4.02699 7.38861H13.8785V5.7467H4.02699V7.38861ZM4.02699 4.92574H13.8785V3.28383H4.02699V4.92574ZM0.743164 16.4191V1.64191C0.743164 1.19039 0.903935 0.803853 1.22548 0.482312C1.54702 0.160771 1.93355 0 2.38508 0H15.5204C15.9719 0 16.3584 0.160771 16.68 0.482312C17.0015 0.803853 17.1623 1.19039 17.1623 1.64191V11.4934C17.1623 11.9449 17.0015 12.3315 16.68 12.653C16.3584 12.9745 15.9719 13.1353 15.5204 13.1353H4.02699L0.743164 16.4191ZM3.32918 11.4934H15.5204V1.64191H2.38508V12.417L3.32918 11.4934Z" fill="#DADADA"/>
</svg>
