<svg width="28" height="28" viewBox="0 0 28 28" fill="none" xmlns="http://www.w3.org/2000/svg">
<g id="Layer_1" clip-path="url(#clip0_370_775)">
<path id="Vector" fill-rule="evenodd" clip-rule="evenodd" d="M14 0C6.27773 0 0 6.27455 0 14C0 21.7255 6.27773 28 14 28C21.7223 28 28 21.7223 28 14C28 6.27773 21.7255 0 14 0ZM14 1.27273C21.0382 1.27273 26.7273 6.96182 26.7273 14C26.7273 21.0382 21.0382 26.7273 14 26.7273C6.96182 26.7273 1.27273 21.035 1.27273 14C1.27273 6.965 6.965 1.27273 14 1.27273Z" fill="white"/>
<path id="Vector_2" fill-rule="evenodd" clip-rule="evenodd" d="M9.15403 8.58757C8.80403 8.62257 8.54948 8.93438 8.5813 9.2812C8.59721 9.43393 8.66403 9.57393 8.77539 9.67893L13.0899 14.003L8.77539 18.3176C8.52403 18.5689 8.52403 18.973 8.77539 19.2212C9.02675 19.4726 9.43084 19.4726 9.67903 19.2212L14.0031 14.8971L18.3177 19.2212C18.569 19.4726 18.9731 19.4726 19.2213 19.2212C19.4727 18.9698 19.4727 18.5657 19.2213 18.3176L14.8972 14.003L19.2213 9.67893C19.4727 9.43393 19.4822 9.03302 19.2372 8.77847C19.1099 8.64802 18.9349 8.57802 18.7536 8.58438C18.5881 8.58757 18.4322 8.65757 18.3145 8.77211L13.9999 13.0867L9.67584 8.77211C9.55494 8.6512 9.38948 8.5812 9.21766 8.58438C9.19539 8.58438 9.16994 8.58438 9.14766 8.58438L9.15403 8.58757Z" fill="white"/>
</g>
<defs>
<clipPath id="clip0_370_775">
<rect width="28" height="28" fill="white"/>
</clipPath>
</defs>
</svg>
