<svg width="17" height="18" viewBox="0 0 17 18" fill="none" xmlns="http://www.w3.org/2000/svg">
<g id="Layer_1" clip-path="url(#clip0_1275_1686)">
<path id="Vector" d="M4.61288 14.3877L15.882 14.3877C16.4995 14.3877 17 13.8956 17 13.2885L17 2.20876C17 1.60169 16.4995 1.10956 15.882 1.10956L4.61288 1.10956C3.99543 1.10956 3.49489 1.60169 3.49489 2.20876L3.49489 13.2885C3.49489 13.8956 3.99543 14.3877 4.61288 14.3877Z" fill="white"/>
<path id="Vector_2" d="M1.11794 4.54537C0.500232 4.54537 -4.21262e-05 5.03724 -4.20731e-05 5.64457L-4.11041e-05 16.7289C-4.1051e-05 17.3363 0.500234 17.8258 1.11795 17.8281L12.3918 17.8281C13.0095 17.8281 13.5098 17.3363 13.5098 16.7289L13.5098 15.2718L4.61283 15.2718C3.50189 15.2718 2.59998 14.385 2.59998 13.2928L2.59998 4.54537L1.11794 4.54537Z" fill="white"/>
</g>
<defs>
<clipPath id="clip0_1275_1686">
<rect width="17" height="18" fill="white" transform="translate(17 18) rotate(180)"/>
</clipPath>
</defs>
</svg>
