<svg width="26" height="27" viewBox="0 0 26 27" fill="none" xmlns="http://www.w3.org/2000/svg">
<g id="Frame" clip-path="url(#clip0_1275_760)">
<path id="Vector" d="M25.9775 13.7742C25.9775 20.948 20.1622 26.7633 12.9884 26.7633C5.81527 26.7627 0 20.9474 0 13.7742C0 6.60043 5.81527 0.785156 12.9891 0.785156C20.1629 0.785156 25.9782 6.60043 25.9782 13.7742H25.9775Z" fill="#9D7F19"/>
<path id="Vector_2" d="M16.8371 12.7661L16.6207 14.5039C16.5841 14.7941 16.3383 15.0125 16.0467 15.0125H13.2322V22.2778C12.9354 22.3046 12.6347 22.3184 12.3307 22.3184C11.6507 22.3184 10.9872 22.2504 10.3458 22.1209V15.0125H8.18119C7.98245 15.0125 7.82031 14.8497 7.82031 14.6503V12.4759C7.82031 12.2765 7.98245 12.1137 8.18119 12.1137H10.3458V8.85268C10.3458 6.85149 11.9613 5.22949 13.9546 5.22949H16.4801C16.6789 5.22949 16.841 5.39228 16.841 5.59168V7.76611C16.841 7.96551 16.6789 8.1283 16.4801 8.1283H14.6757C13.8788 8.1283 13.2329 8.77684 13.2329 9.57771V12.1143H16.2637C16.6115 12.1143 16.8802 12.4203 16.8377 12.7668L16.8371 12.7661Z" fill="white"/>
</g>
<defs>
<clipPath id="clip0_1275_760">
<rect width="25.9782" height="25.9782" fill="white" transform="translate(0 0.785156)"/>
</clipPath>
</defs>
</svg>
