<svg width="26" height="35" viewBox="0 0 26 35" fill="none" xmlns="http://www.w3.org/2000/svg">
<path d="M21.087 17.0662C20.922 17.0662 20.7571 17.0767 20.5956 17.0977C20.6167 16.9363 20.6272 16.7713 20.6272 16.6063C20.6272 15.0198 19.6233 13.6228 18.1281 13.1384C17.4401 12.9138 16.3906 12.6611 15.1691 12.6611H15.1445C15.5552 11.9871 16.1308 11.0921 16.8329 10.1619C18.2228 8.32618 18.093 6.49395 16.4889 5.26895C15.7623 4.71436 14.3618 4.11064 12.4488 5.40935C12.4664 5.29001 12.4839 5.16716 12.505 5.03027C12.863 2.69961 11.3748 1.3307 9.83737 1.04639C8.11745 0.726973 6.61867 2.10992 6.21151 3.57361C6.03601 4.20892 5.79733 5.2163 5.53758 6.46236C5.16552 6.34302 4.69518 6.27984 4.05635 6.33249C2.72956 6.44832 1.12548 7.4206 1.00965 9.80742C0.865736 12.6927 2.35399 20.5341 3.99668 25.4657C4.20728 26.2554 4.49511 27.0522 4.87419 27.849C6.65026 31.5661 9.63379 33.5633 13.9897 33.9564C14.2811 33.981 14.6075 33.9985 14.962 33.9985C17.3032 33.9985 20.7887 33.2369 23.2527 29.3337C24.9129 26.7047 25.4851 22.4119 24.5549 19.5618C24.0705 18.07 22.677 17.0662 21.087 17.0662ZM7.65764 3.97726C7.88228 3.16293 8.74926 2.36967 9.56709 2.5206C10.3814 2.67153 11.2554 3.363 11.0308 4.80914C10.8307 6.11136 10.7605 6.70104 10.7359 6.95727C9.44424 8.31916 7.45757 10.6604 5.89912 13.5737C6.38701 9.43886 7.22591 5.53922 7.65764 3.97375V3.97726ZM4.04582 18.2525C3.9686 18.5579 3.8984 18.8668 3.83522 19.1792C2.99281 15.4305 2.41366 11.6256 2.50141 9.88113C2.58916 8.09452 3.81416 7.85584 4.18973 7.82425C4.74081 7.77862 5.04267 7.84531 5.25678 7.95412C4.69869 10.9341 4.1441 14.7706 4.04582 18.2069C4.04582 18.221 4.04582 18.235 4.04582 18.2525ZM21.9856 28.5369C19.697 32.1628 16.4432 32.6752 14.1196 32.4682C11.7925 32.2576 8.51058 31.524 6.45019 27.6664C6.43615 27.6138 6.4186 27.5576 6.39403 27.505C6.08164 26.8697 5.75871 26.0413 5.4393 25.0936C3.36839 17.2522 10.076 9.71615 12.3435 7.44517C13.214 6.57468 13.9897 6.13593 14.6637 6.13593C14.9971 6.13593 15.3025 6.24474 15.5833 6.45885C15.9238 6.71859 16.9627 7.51537 15.643 9.26336C14.4636 10.8253 13.6317 12.2644 13.2947 12.8717C11.4309 13.3069 9.41265 14.4933 7.75241 17.1925C7.53479 17.5435 7.64711 18.0033 7.99811 18.221C8.34912 18.4386 8.80893 18.3263 9.02655 17.9753C11.803 13.4614 15.6324 13.8966 17.6682 14.56C18.6826 14.8899 19.1354 15.8271 19.1354 16.6063C19.1354 17.182 18.9073 17.726 18.4966 18.1402C17.9245 18.7124 17.075 18.923 16.3309 18.6808C14.9374 18.2245 13.2561 18.7088 12.0487 19.9163C10.3112 21.6538 10.0655 24.2512 11.4906 25.8272C12.3786 26.81 13.7265 27.4172 15.0954 27.4523C16.1835 27.4769 17.1347 27.147 17.7665 26.5151C19.2934 24.9883 19.4935 22.8261 19.0126 21.3624C18.7669 20.6183 18.981 19.7689 19.5531 19.2003C19.9638 18.7896 20.5114 18.5614 21.087 18.5614C22.0417 18.5614 22.842 19.1371 23.1334 20.0251C23.9266 22.4611 23.4106 26.28 21.9856 28.5369ZM17.5945 21.8293C17.9315 22.8577 17.7911 24.3811 16.71 25.4586C16.3765 25.7921 15.8044 25.9746 15.134 25.9571C14.1652 25.9325 13.2175 25.5078 12.5998 24.8233C11.6205 23.7387 12.1013 21.9802 13.1087 20.9728C13.7335 20.348 14.5162 20.0005 15.2358 20.0005C15.4534 20.0005 15.6675 20.0321 15.8676 20.0988C16.3871 20.2708 16.9276 20.3164 17.4471 20.2462C17.3769 20.7692 17.426 21.3063 17.5945 21.8258V21.8293Z" fill="#9D7F19" stroke="#9D7F19"/>
</svg>
