<svg width="15" height="14" viewBox="0 0 15 14" fill="none" xmlns="http://www.w3.org/2000/svg">
<path opacity="0.7" d="M12.0395 13.0263C11.2105 13.0263 10.5099 12.7401 9.9375 12.1678C9.36513 11.5954 9.07895 10.8947 9.07895 10.0658C9.07895 9.23684 9.36513 8.53618 9.9375 7.96382C10.5099 7.39145 11.2105 7.10526 12.0395 7.10526C12.8684 7.10526 13.5691 7.39145 14.1414 7.96382C14.7138 8.53618 15 9.23684 15 10.0658C15 10.8947 14.7138 11.5954 14.1414 12.1678C13.5691 12.7401 12.8684 13.0263 12.0395 13.0263ZM1.18421 10.8553V9.27632H7.5V10.8553H1.18421ZM2.96053 5.92105C2.13158 5.92105 1.43092 5.63487 0.858553 5.0625C0.286184 4.49013 0 3.78947 0 2.96053C0 2.13158 0.286184 1.43092 0.858553 0.858553C1.43092 0.286184 2.13158 0 2.96053 0C3.78947 0 4.49013 0.286184 5.0625 0.858553C5.63487 1.43092 5.92105 2.13158 5.92105 2.96053C5.92105 3.78947 5.63487 4.49013 5.0625 5.0625C4.49013 5.63487 3.78947 5.92105 2.96053 5.92105ZM7.5 3.75V2.17105H13.8158V3.75H7.5Z" fill="#6D6E70"/>
</svg>
