<svg width="25" height="24" viewBox="0 0 25 24" fill="none" xmlns="http://www.w3.org/2000/svg">
<g id="fitness_center_FILL0_wght400_GRAD0_opsz24">
<path id="Vector" d="M13.6313 20L12.5 18.8687L15.3687 16L8.5 9.13131L5.63131 12L4.5 10.8687L5.63131 9.69697L4.5 8.56566L6.19697 6.86869L5.06566 5.69697L6.19697 4.56566L7.36869 5.69697L9.06566 4L10.197 5.13131L11.3687 4L12.5 5.13131L9.63131 8L16.5 14.8687L19.3687 12L20.5 13.1313L19.3687 14.303L20.5 15.4343L18.803 17.1313L19.9343 18.303L18.803 19.4343L17.6313 18.303L15.9343 20L14.803 18.8687L13.6313 20Z" fill="#9D7F19"/>
</g>
</svg>
