<svg width="25" height="24" viewBox="0 0 25 24" fill="none" xmlns="http://www.w3.org/2000/svg">
<g id="golf_course_FILL0_wght400_GRAD0_opsz24">
<path id="Vector" d="M20 21C19.5833 21 19.2292 20.8542 18.9375 20.5625C18.6458 20.2708 18.5 19.9167 18.5 19.5C18.5 19.0833 18.6458 18.7292 18.9375 18.4375C19.2292 18.1458 19.5833 18 20 18C20.4167 18 20.7708 18.1458 21.0625 18.4375C21.3542 18.7292 21.5 19.0833 21.5 19.5C21.5 19.9167 21.3542 20.2708 21.0625 20.5625C20.7708 20.8542 20.4167 21 20 21ZM10.5 22C8.83333 22 7.41667 21.8042 6.25 21.4125C5.08333 21.0208 4.5 20.55 4.5 20C4.5 19.6167 4.775 19.275 5.325 18.975C5.875 18.675 6.6 18.4333 7.5 18.25V20H9.5V2L17.5 5.9L11.5 9V18.05C12.9333 18.1333 14.125 18.3542 15.075 18.7125C16.025 19.0708 16.5 19.5 16.5 20C16.5 20.55 15.9167 21.0208 14.75 21.4125C13.5833 21.8042 12.1667 22 10.5 22Z" fill="#9D7F19"/>
</g>
</svg>
