<svg width="163" height="20" viewBox="0 0 163 20" fill="none" xmlns="http://www.w3.org/2000/svg">
<g id="Lodha logo 1" clip-path="url(#clip0_334_2085)">
<path id="Path 1" d="M26.208 0.450195V19.5718H42.0877V15.9266H30.0222V0.450195H26.208Z" fill="#9D7F19"/>
<g id="Group 2">
<g id="Clip path group">
<mask id="mask0_334_2085" style="mask-type:luminance" maskUnits="userSpaceOnUse" x="0" y="0" width="163" height="20">
<g id="clip-path">
<path id="Rectangle 6" d="M163 0H0V20H163V0Z" fill="white"/>
</g>
</mask>
<g mask="url(#mask0_334_2085)">
<g id="Group 1">
<path id="Path 2" d="M73.706 9.98793C73.7343 11.3121 73.4375 12.6245 72.8389 13.8223C72.2403 15.0201 71.3562 16.0709 70.2557 16.8922C68.9256 17.9161 67.4037 18.6952 65.7692 19.1889C62.0762 20.265 58.1254 20.265 54.4323 19.1889C52.7979 18.7008 51.2779 17.9212 49.9547 16.8922C48.8631 16.0634 47.9857 15.0109 47.389 13.8144C46.809 12.6112 46.516 11.3023 46.5308 9.98045C46.5171 8.66998 46.8145 7.37326 47.4013 6.18558C48.0116 4.99945 48.8926 3.95571 49.9811 3.12939C51.323 2.10341 52.8546 1.32103 54.4984 0.821855C58.1567 -0.273952 62.0845 -0.273952 65.7428 0.821855C67.3855 1.32045 68.9158 2.10291 70.2557 3.12939C71.3523 3.94372 72.2345 4.98664 72.8331 6.1765C73.4317 7.36637 73.7304 8.67088 73.706 9.98793ZM68.7111 9.98793C68.7229 9.0987 68.5147 8.21915 68.1032 7.4192C67.6925 6.64115 67.1035 5.95918 66.3789 5.42278C65.567 4.83695 64.6489 4.39553 63.6696 4.12011C61.3499 3.49511 58.8913 3.49511 56.5716 4.12011C55.5928 4.39482 54.6754 4.83631 53.8649 5.42278C53.138 5.95737 52.5481 6.63975 52.1389 7.4192C51.7269 8.21898 51.5187 9.09865 51.5309 9.98793C51.5176 10.8876 51.7207 11.7784 52.1248 12.5933C52.5229 13.3795 53.1093 14.0676 53.8376 14.603C54.6421 15.1886 55.5561 15.626 56.532 15.8924C57.6881 16.2108 58.8882 16.3644 60.0924 16.3482C61.3018 16.3635 62.5069 16.2099 63.6687 15.8924C64.6494 15.6267 65.5685 15.1893 66.378 14.603C67.1203 14.058 67.7178 13.3571 68.1231 12.556C68.5284 11.7549 68.7304 10.8756 68.7129 9.98793" fill="#9D7F19"/>
<path id="Path 3" d="M97.0182 1.2648C98.4121 1.67467 99.7072 2.33915 100.83 3.22047C101.87 4.0516 102.697 5.0949 103.247 6.27167C103.821 7.51737 104.108 8.86385 104.09 10.2221C104.115 11.5464 103.804 12.8571 103.184 14.0453C102.564 15.2334 101.653 16.2647 100.526 17.0532C99.4672 17.8426 98.2656 18.4441 96.9794 18.8283C95.5823 19.2511 94.1231 19.4622 92.656 19.4539H78.5684V0.573541H91.9952C93.6973 0.552757 95.3932 0.786054 97.0182 1.2648ZM95.3433 15.199C96.2755 14.7891 97.0932 14.1789 97.731 13.4172C98.5344 12.4942 98.9744 11.3369 98.976 10.1422C98.9843 9.32459 98.8148 8.51403 98.4781 7.76066C98.1621 7.04554 97.6933 6.39962 97.101 5.86323C96.4918 5.31899 95.7726 4.89631 94.9864 4.62046C94.126 4.31643 93.2133 4.16581 92.2947 4.17625H83.4319V15.8553H92.3238C93.3712 15.856 94.4049 15.6315 95.3468 15.199" fill="#9D7F19"/>
<path id="Path 4" d="M128.252 19.4545V11.3423H113.802V19.4545H108.95V0.601562H113.81V7.48423H128.26V0.601562H133.122V19.4545" fill="#9D7F19"/>
<path id="Path 5" d="M158.088 19.4526L155.797 15.3849H142.976L140.685 19.4526H135.773L146.401 0.572266H152.392L162.997 19.4551M149.356 4.04022L144.964 11.7872H153.748L149.356 4.04022Z" fill="#9D7F19"/>
<path id="Rectangle 1" d="M12.714 17.5332H0V19.4539H12.714V17.5332Z" fill="#6D6E70"/>
<path id="Rectangle 2" d="M12.714 0.574219H0V2.49078H12.714V0.574219Z" fill="#6D6E70"/>
<path id="Rectangle 3" d="M12.714 4.81348H0V6.73171H12.714V4.81348Z" fill="#6D6E70"/>
<path id="Rectangle 4" d="M12.714 9.06641H0V10.9597H12.714V9.06641Z" fill="#6D6E70"/>
<path id="Rectangle 5" d="M12.714 13.2939H0V15.2122H12.714V13.2939Z" fill="#6D6E70"/>
</g>
</g>
</g>
</g>
</g>
<defs>
<clipPath id="clip0_334_2085">
<rect width="163" height="20" fill="white"/>
</clipPath>
</defs>
</svg>
