<svg width="28" height="28" viewBox="0 0 28 28" fill="none" xmlns="http://www.w3.org/2000/svg">
<path id="Vector" d="M14 0C6.27232 0 0 6.2832 0 14C0 21.7168 6.27232 28 14 28C21.7277 28 28 21.7168 28 14C28 6.2832 21.7334 0 14 0ZM14 1.2264C21.0371 1.2264 26.7501 6.9384 26.7501 14C26.7501 21.0616 21.0371 26.7736 14 26.7736C6.9629 26.7736 1.26702 21.0672 1.26702 14C1.26702 6.9328 6.9629 1.2264 14 1.2264ZM13.9258 13.3896C12.5 13.3896 12.5 13.3896 12.5 13.3896H12H7.54505C7.20261 13.3504 6.88871 13.5968 6.85446 13.9384C6.81451 14.2744 7.06563 14.5824 7.41378 14.616C7.45944 14.616 7.5051 14.616 7.55075 14.616H13.3836C13.5 14.616 13.7069 14.616 13.9141 14.616C14.1215 14.616 14.4453 14.616 14.4453 14.616H14.6278H20.4607C20.8031 14.6552 21.117 14.4088 21.1512 14.0672C21.1912 13.7312 20.9401 13.4232 20.5919 13.3896C20.5463 13.3896 20.5006 13.3896 20.455 13.3896H15.2656H14.8281C14.8281 13.3896 14.6278 13.3896 14.4453 13.3896C12.0566 13.3896 13.1723 13.4673 13 13.5C12.8277 13.5327 14.1012 13.3896 13.9258 13.3896Z" fill="#9D7F19"/>
</svg>
