<svg width="25" height="24" viewBox="0 0 25 24" fill="none" xmlns="http://www.w3.org/2000/svg">
<g id="nature_FILL0_wght400_GRAD0_opsz24">
<path id="Vector" d="M5.5 22V20H11.5V16H9.5C8.11667 16 6.9375 15.5125 5.9625 14.5375C4.9875 13.5625 4.5 12.3833 4.5 11C4.5 10 4.775 9.07917 5.325 8.2375C5.875 7.39583 6.61667 6.78333 7.55 6.4C7.7 5.15 8.24583 4.10417 9.1875 3.2625C10.1292 2.42083 11.2333 2 12.5 2C13.7667 2 14.8708 2.42083 15.8125 3.2625C16.7542 4.10417 17.3 5.15 17.45 6.4C18.3833 6.78333 19.125 7.39583 19.675 8.2375C20.225 9.07917 20.5 10 20.5 11C20.5 12.3833 20.0125 13.5625 19.0375 14.5375C18.0625 15.5125 16.8833 16 15.5 16H13.5V20H19.5V22H5.5ZM9.5 14H15.5C16.3333 14 17.0417 13.7083 17.625 13.125C18.2083 12.5417 18.5 11.8333 18.5 11C18.5 10.4 18.3292 9.85 17.9875 9.35C17.6458 8.85 17.2 8.48333 16.65 8.25L15.6 7.8L15.45 6.65C15.35 5.9 15.0208 5.27083 14.4625 4.7625C13.9042 4.25417 13.25 4 12.5 4C11.75 4 11.0958 4.25417 10.5375 4.7625C9.97917 5.27083 9.65 5.9 9.55 6.65L9.4 7.8L8.35 8.25C7.8 8.48333 7.35417 8.85 7.0125 9.35C6.67083 9.85 6.5 10.4 6.5 11C6.5 11.8333 6.79167 12.5417 7.375 13.125C7.95833 13.7083 8.66667 14 9.5 14Z" fill="#9D7F19"/>
</g>
</svg>
