<svg width="15" height="14" viewBox="0 0 15 14" fill="none" xmlns="http://www.w3.org/2000/svg">
<path id="Vector" d="M1.5 14C1.0875 14 0.734375 13.8557 0.440625 13.5671C0.146875 13.2785 0 12.9316 0 12.5263V4.42105C0 4.01579 0.146875 3.66886 0.440625 3.38026C0.734375 3.09167 1.0875 2.94737 1.5 2.94737H4.5V1.47368C4.5 1.06842 4.64688 0.721491 4.94063 0.432895C5.23438 0.144298 5.5875 0 6 0H9C9.4125 0 9.76562 0.144298 10.0594 0.432895C10.3531 0.721491 10.5 1.06842 10.5 1.47368V2.94737H13.5C13.9125 2.94737 14.2656 3.09167 14.5594 3.38026C14.8531 3.66886 15 4.01579 15 4.42105V12.5263C15 12.9316 14.8531 13.2785 14.5594 13.5671C14.2656 13.8557 13.9125 14 13.5 14H1.5ZM6 2.94737H9V1.47368H6V2.94737ZM13.5 9.57895H9.75V11.0526H5.25V9.57895H1.5V12.5263H13.5V9.57895ZM6.75 9.57895H8.25V8.10526H6.75V9.57895ZM1.5 8.10526H5.25V6.63158H9.75V8.10526H13.5V4.42105H1.5V8.10526Z" fill="#9D7F19"/>
</svg>
