<svg width="27" height="27" viewBox="0 0 27 27" fill="none" xmlns="http://www.w3.org/2000/svg">
<g id="Frame" clip-path="url(#clip0_1275_757)">
<path id="Vector" d="M26.9562 13.7742C26.9562 20.948 21.1409 26.7633 13.9671 26.7633C6.7933 26.7633 0.978027 20.948 0.978027 13.7742C0.978027 6.60043 6.7933 0.785156 13.9671 0.785156C21.1409 0.785156 26.9562 6.60043 26.9562 13.7742Z" fill="#9D7F19"/>
<path id="Vector_2" d="M15.8416 12.5807L21.0959 6.96094H19.1006L14.9766 11.3726L11.8183 6.96094H6.3606L11.8849 14.678L6.3606 20.5874H8.3559L12.7505 15.8868L16.1155 20.5874H21.5731L15.8416 12.5814V12.5807ZM9.17246 8.40577H11.0749L18.7606 19.1413H16.8582L9.17246 8.40577Z" fill="white"/>
</g>
<defs>
<clipPath id="clip0_1275_757">
<rect width="25.9782" height="25.9782" fill="white" transform="translate(0.978027 0.785156)"/>
</clipPath>
</defs>
</svg>
