<svg width="30" height="31" viewBox="0 0 30 31" fill="none" xmlns="http://www.w3.org/2000/svg">
<path d="M11.1173 21.1743L15 18.8181L18.8827 21.1743L17.854 16.7606L21.3053 13.7739L16.7588 13.4088L15 9.22741L13.2412 13.4088L8.69469 13.7739L12.146 16.7606L11.1173 21.1743ZM15 30.5327L10.5531 26.1522H4.38053V19.9796L0 15.5327L4.38053 11.0858V4.91325H10.5531L15 0.532715L19.4469 4.91325H25.6195V11.0858L30 15.5327L25.6195 19.9796V26.1522H19.4469L15 30.5327ZM15 26.8159L18.3186 23.4973H22.9646V18.8513L26.2832 15.5327L22.9646 12.2141V7.56811H18.3186L15 4.24953L11.6814 7.56811H7.0354V12.2141L3.71681 15.5327L7.0354 18.8513V23.4973H11.6814L15 26.8159Z" fill="#9D7F19"/>
</svg>
