<svg width="13" height="31" viewBox="0 0 13 31" fill="none" xmlns="http://www.w3.org/2000/svg">
<path d="M3.5 30.5327V23.0327H0.5V12.5327C0.5 11.2827 0.9375 10.2202 1.8125 9.34521C2.6875 8.47021 3.75 8.03271 5 8.03271C6.25 8.03271 7.3125 8.47021 8.1875 9.34521C9.0625 10.2202 9.5 11.2827 9.5 12.5327C10.4 12.9077 11.125 13.5077 11.675 14.3327C12.225 15.1577 12.5 16.0577 12.5 17.0327V23.0327H8V30.5327H3.5ZM5 6.53271C4.175 6.53271 3.46875 6.23897 2.88125 5.65146C2.29375 5.06396 2 4.35771 2 3.53271C2 2.70771 2.29375 2.00146 2.88125 1.41396C3.46875 0.826465 4.175 0.532715 5 0.532715C5.825 0.532715 6.53125 0.826465 7.11875 1.41396C7.70625 2.00146 8 2.70771 8 3.53271C8 4.35771 7.70625 5.06396 7.11875 5.65146C6.53125 6.23897 5.825 6.53271 5 6.53271Z" fill="#9D7F19"/>
</svg>
