<svg width="31" height="31" viewBox="0 0 31 31" fill="none" xmlns="http://www.w3.org/2000/svg">
<path d="M3.5 30.5327C2.675 30.5327 1.96875 30.239 1.38125 29.6515C0.79375 29.064 0.5 28.3577 0.5 27.5327V9.53271C0.5 8.70772 0.79375 8.00146 1.38125 7.41397C1.96875 6.82647 2.675 6.53271 3.5 6.53271H9.5V3.53271C9.5 2.70771 9.79375 2.00146 10.3813 1.41396C10.9688 0.826465 11.675 0.532715 12.5 0.532715H18.5C19.325 0.532715 20.0312 0.826465 20.6188 1.41396C21.2063 2.00146 21.5 2.70771 21.5 3.53271V6.53271H27.5C28.325 6.53271 29.0312 6.82647 29.6188 7.41397C30.2063 8.00146 30.5 8.70772 30.5 9.53271V27.5327C30.5 28.3577 30.2063 29.064 29.6188 29.6515C29.0312 30.239 28.325 30.5327 27.5 30.5327H3.5ZM3.5 27.5327H27.5V9.53271H3.5V27.5327ZM12.5 6.53271H18.5V3.53271H12.5V6.53271ZM14 20.0327V24.5327H17V20.0327H21.5V17.0327H17V12.5327H14V17.0327H9.5V20.0327H14Z" fill="#9D7F19"/>
</svg>
