<svg width="30" height="31" viewBox="0 0 30 31" fill="none" xmlns="http://www.w3.org/2000/svg">
<path d="M15 30.5327C13.175 30.3077 11.3625 29.814 9.5625 29.0515C7.7625 28.289 6.15625 27.1952 4.74375 25.7702C3.33125 24.3452 2.1875 22.5452 1.3125 20.3702C0.4375 18.1952 0 15.5827 0 12.5327V11.0327H1.5C2.775 11.0327 4.0875 11.1952 5.4375 11.5202C6.7875 11.8452 8.05 12.3327 9.225 12.9827C9.525 10.8327 10.2063 8.62646 11.2688 6.36397C12.3313 4.10146 13.575 2.15771 15 0.532715C16.425 2.15771 17.6688 4.10146 18.7313 6.36397C19.7938 8.62646 20.475 10.8327 20.775 12.9827C21.95 12.3327 23.2125 11.8452 24.5625 11.5202C25.9125 11.1952 27.225 11.0327 28.5 11.0327H30V12.5327C30 15.5827 29.5625 18.1952 28.6875 20.3702C27.8125 22.5452 26.6687 24.3452 25.2562 25.7702C23.8438 27.1952 22.2437 28.289 20.4562 29.0515C18.6687 29.814 16.85 30.3077 15 30.5327ZM14.925 27.4577C14.65 23.3077 13.4188 20.1702 11.2313 18.0452C9.04375 15.9202 6.325 14.6077 3.075 14.1077C3.35 18.3827 4.61875 21.5702 6.88125 23.6702C9.14375 25.7702 11.825 27.0327 14.925 27.4577ZM15 17.9327C15.375 17.3827 15.8313 16.814 16.3688 16.2265C16.9062 15.639 17.425 15.1327 17.925 14.7077C17.875 13.2827 17.5938 11.7952 17.0812 10.2452C16.5688 8.69522 15.875 7.18271 15 5.70772C14.125 7.18271 13.4313 8.69522 12.9188 10.2452C12.4062 11.7952 12.125 13.2827 12.075 14.7077C12.575 15.1327 13.1 15.639 13.65 16.2265C14.2 16.814 14.65 17.3827 15 17.9327ZM17.925 26.7827C18.85 26.4827 19.8125 26.0452 20.8125 25.4702C21.8125 24.8952 22.7437 24.114 23.6063 23.1265C24.4688 22.139 25.2062 20.9077 25.8187 19.4327C26.4312 17.9577 26.8 16.1827 26.925 14.1077C24.575 14.4577 22.5125 15.239 20.7375 16.4515C18.9625 17.664 17.6 19.2077 16.65 21.0827C16.95 21.8827 17.2063 22.7577 17.4188 23.7077C17.6313 24.6577 17.8 25.6827 17.925 26.7827Z" fill="#9D7F19"/>
</svg>
