<svg width="26" height="26" viewBox="0 0 26 26" fill="none" xmlns="http://www.w3.org/2000/svg">
<path d="M11.0458 19.0327H16.4837V16.3137H11.0458V19.0327ZM11.0458 13.5948H20.5621V10.8758H11.0458V13.5948ZM6.96732 8.15686H20.5621V5.43791H6.96732V8.15686ZM6.45752 25.8301C4.66754 25.8301 3.14379 25.2013 1.88627 23.9438C0.628758 22.6863 0 21.1625 0 19.3725C0 18.081 0.334205 16.9255 1.00261 15.9059C1.67102 14.8863 2.54902 14.1159 3.6366 13.5948H0.169935V10.8758H8.3268V19.0327H5.60784V15.7359C4.7695 15.9172 4.07843 16.3477 3.53464 17.0275C2.99085 17.7072 2.71895 18.4889 2.71895 19.3725C2.71895 20.4148 3.08715 21.2985 3.82353 22.0235C4.55991 22.7486 5.43791 23.1111 6.45752 23.1111V25.8301ZM11.0458 24.4706V21.7516H23.281V2.71895H4.24837V8.15686H1.52941V2.71895C1.52941 1.97124 1.79564 1.33115 2.3281 0.798693C2.86057 0.266231 3.50065 0 4.24837 0H23.281C24.0288 0 24.6688 0.266231 25.2013 0.798693C25.7338 1.33115 26 1.97124 26 2.71895V21.7516C26 22.4993 25.7338 23.1394 25.2013 23.6719C24.6688 24.2044 24.0288 24.4706 23.281 24.4706H11.0458Z" fill="#9D7F19"/>
</svg>
