<svg width="25" height="24" viewBox="0 0 25 24" fill="none" xmlns="http://www.w3.org/2000/svg">
<g id="sports_basketball_FILL0_wght400_GRAD0_opsz24">
<path id="Vector" d="M6.14 11.2H8.42C8.34 10.6933 8.18667 10.22 7.96 9.78C7.73333 9.34 7.44667 8.94667 7.1 8.6C6.86 8.98667 6.65667 9.39667 6.49 9.83C6.32333 10.2633 6.20667 10.72 6.14 11.2ZM16.58 11.2H18.86C18.7933 10.72 18.6767 10.2633 18.51 9.83C18.3433 9.39667 18.14 8.98667 17.9 8.6C17.5533 8.94667 17.2667 9.34 17.04 9.78C16.8133 10.22 16.66 10.6933 16.58 11.2ZM7.1 15.4C7.44667 15.0533 7.73333 14.66 7.96 14.22C8.18667 13.78 8.34 13.3067 8.42 12.8H6.14C6.20667 13.28 6.32333 13.7367 6.49 14.17C6.65667 14.6033 6.86 15.0133 7.1 15.4ZM17.9 15.4C18.14 15.0133 18.3433 14.6033 18.51 14.17C18.6767 13.7367 18.7933 13.28 18.86 12.8H16.58C16.66 13.3067 16.8133 13.78 17.04 14.22C17.2667 14.66 17.5533 15.0533 17.9 15.4ZM10.06 11.2H11.7V5.64C10.9933 5.74667 10.3367 5.94333 9.73 6.23C9.12333 6.51667 8.58 6.89333 8.1 7.36C8.62 7.86667 9.05 8.44333 9.39 9.09C9.73 9.73667 9.95333 10.44 10.06 11.2ZM13.3 11.2H14.94C15.0467 10.44 15.27 9.73667 15.61 9.09C15.95 8.44333 16.38 7.86667 16.9 7.36C16.42 6.89333 15.8767 6.51667 15.27 6.23C14.6633 5.94333 14.0067 5.74667 13.3 5.64V11.2ZM11.7 18.36V12.8H10.06C9.95333 13.56 9.73 14.2633 9.39 14.91C9.05 15.5567 8.62 16.1333 8.1 16.64C8.58 17.1067 9.12333 17.4833 9.73 17.77C10.3367 18.0567 10.9933 18.2533 11.7 18.36ZM13.3 18.36C14.0067 18.2533 14.6633 18.0567 15.27 17.77C15.8767 17.4833 16.42 17.1067 16.9 16.64C16.38 16.1333 15.95 15.5567 15.61 14.91C15.27 14.2633 15.0467 13.56 14.94 12.8H13.3V18.36ZM12.5 20C11.3933 20 10.3533 19.79 9.38 19.37C8.40667 18.95 7.56 18.38 6.84 17.66C6.12 16.94 5.55 16.0933 5.13 15.12C4.71 14.1467 4.5 13.1067 4.5 12C4.5 10.8933 4.71 9.85333 5.13 8.88C5.55 7.90667 6.12 7.06 6.84 6.34C7.56 5.62 8.40667 5.05 9.38 4.63C10.3533 4.21 11.3933 4 12.5 4C13.6067 4 14.6467 4.21 15.62 4.63C16.5933 5.05 17.44 5.62 18.16 6.34C18.88 7.06 19.45 7.90667 19.87 8.88C20.29 9.85333 20.5 10.8933 20.5 12C20.5 13.1067 20.29 14.1467 19.87 15.12C19.45 16.0933 18.88 16.94 18.16 17.66C17.44 18.38 16.5933 18.95 15.62 19.37C14.6467 19.79 13.6067 20 12.5 20Z" fill="#9D7F19"/>
</g>
</svg>
