<svg width="17" height="16" viewBox="0 0 17 16" fill="none" xmlns="http://www.w3.org/2000/svg">
<path id="Vector" d="M14.6168 8C14.6168 6.26667 14.0131 4.7963 12.8056 3.58889C11.5982 2.38148 10.1279 1.77778 8.39453 1.77778V0C9.50564 0 10.5464 0.211111 11.5168 0.633333C12.4871 1.05556 13.3316 1.62593 14.0501 2.34444C14.7686 3.06296 15.339 3.90741 15.7612 4.87778C16.1834 5.84815 16.3945 6.88889 16.3945 8H14.6168ZM11.0612 8C11.0612 7.25926 10.8019 6.62963 10.2834 6.11111C9.7649 5.59259 9.13527 5.33333 8.39453 5.33333V3.55556C9.62416 3.55556 10.6723 3.98889 11.539 4.85556C12.4056 5.72222 12.839 6.77037 12.839 8H11.0612ZM15.4612 16C13.6093 16 11.7797 15.5963 9.97231 14.7889C8.1649 13.9815 6.52046 12.837 5.03898 11.3556C3.55749 9.87407 2.41305 8.22963 1.60564 6.42222C0.798235 4.61481 0.394531 2.78519 0.394531 0.933333C0.394531 0.666667 0.48342 0.444444 0.661198 0.266667C0.838976 0.0888889 1.0612 0 1.32786 0H4.92786C5.13527 0 5.32046 0.0703704 5.48342 0.211111C5.64638 0.351852 5.74268 0.518519 5.77231 0.711111L6.35009 3.82222C6.37972 4.05926 6.37231 4.25926 6.32786 4.42222C6.28342 4.58519 6.20194 4.72593 6.08342 4.84444L3.92786 7.02222C4.22416 7.57037 4.57601 8.1 4.98342 8.61111C5.39083 9.12222 5.83898 9.61481 6.32786 10.0889C6.78712 10.5481 7.26861 10.9741 7.77231 11.3667C8.27601 11.7593 8.80935 12.1185 9.37231 12.4444L11.4612 10.3556C11.5945 10.2222 11.7686 10.1222 11.9834 10.0556C12.1982 9.98889 12.4093 9.97037 12.6168 10L15.6834 10.6222C15.8908 10.6815 16.0612 10.7889 16.1945 10.9444C16.3279 11.1 16.3945 11.2741 16.3945 11.4667V15.0667C16.3945 15.3333 16.3056 15.5556 16.1279 15.7333C15.9501 15.9111 15.7279 16 15.4612 16ZM3.08342 5.33333L4.55009 3.86667L4.17231 1.77778H2.19453C2.26861 2.38519 2.37231 2.98519 2.50564 3.57778C2.63898 4.17037 2.83157 4.75556 3.08342 5.33333ZM11.039 13.2889C11.6168 13.5407 12.2056 13.7407 12.8056 13.8889C13.4056 14.037 14.0093 14.1333 14.6168 14.1778V12.2222L12.5279 11.8L11.039 13.2889Z" fill="#DADADA"/>
</svg>
