<svg width="19" height="16" viewBox="0 0 19 16" fill="none" xmlns="http://www.w3.org/2000/svg">
<g id="Frame 4" clip-path="url(#clip0_334_2113)">
<path id="Vector" d="M0.697266 10V8H7.69727V10H0.697266ZM0.697266 6V4H11.6973V6H0.697266ZM0.697266 2V0H11.6973V2H0.697266ZM9.69727 16V12.925L15.2223 7.425C15.3723 7.275 15.5389 7.16667 15.7223 7.1C15.9056 7.03333 16.0889 7 16.2723 7C16.4723 7 16.6639 7.0375 16.8473 7.1125C17.0306 7.1875 17.1973 7.3 17.3473 7.45L18.2723 8.375C18.4056 8.525 18.5098 8.69167 18.5848 8.875C18.6598 9.05833 18.6973 9.24167 18.6973 9.425C18.6973 9.60833 18.6639 9.79583 18.5973 9.9875C18.5306 10.1792 18.4223 10.35 18.2723 10.5L12.7723 16H9.69727ZM11.1973 14.5H12.1473L15.1723 11.45L14.7223 10.975L14.2473 10.525L11.1973 13.55V14.5ZM14.7223 10.975L14.2473 10.525L15.1723 11.45L14.7223 10.975Z" fill="#DADADA"/>
</g>
<defs>
<clipPath id="clip0_334_2113">
<rect width="18" height="16" fill="white" transform="translate(0.697266)"/>
</clipPath>
</defs>
</svg>
