<svg width="19" height="13" viewBox="0 0 19 13" fill="none" xmlns="http://www.w3.org/2000/svg">
<path d="M9.53125 9.81818C10.554 9.81818 11.4233 9.46023 12.1392 8.74432C12.8551 8.02841 13.2131 7.15909 13.2131 6.13636C13.2131 5.11364 12.8551 4.24432 12.1392 3.52841C11.4233 2.8125 10.554 2.45455 9.53125 2.45455C8.50852 2.45455 7.6392 2.8125 6.9233 3.52841C6.20739 4.24432 5.84943 5.11364 5.84943 6.13636C5.84943 7.15909 6.20739 8.02841 6.9233 8.74432C7.6392 9.46023 8.50852 9.81818 9.53125 9.81818ZM9.53125 8.34545C8.91761 8.34545 8.39602 8.13068 7.96648 7.70114C7.53693 7.27159 7.32216 6.75 7.32216 6.13636C7.32216 5.52273 7.53693 5.00114 7.96648 4.57159C8.39602 4.14205 8.91761 3.92727 9.53125 3.92727C10.1449 3.92727 10.6665 4.14205 11.096 4.57159C11.5256 5.00114 11.7403 5.52273 11.7403 6.13636C11.7403 6.75 11.5256 7.27159 11.096 7.70114C10.6665 8.13068 10.1449 8.34545 9.53125 8.34545ZM9.53125 12.2727C7.54034 12.2727 5.7267 11.717 4.09034 10.6057C2.45398 9.49432 1.26761 8.00455 0.53125 6.13636C1.26761 4.26818 2.45398 2.77841 4.09034 1.66705C5.7267 0.555682 7.54034 0 9.53125 0C11.5222 0 13.3358 0.555682 14.9722 1.66705C16.6085 2.77841 17.7949 4.26818 18.5312 6.13636C17.7949 8.00455 16.6085 9.49432 14.9722 10.6057C13.3358 11.717 11.5222 12.2727 9.53125 12.2727ZM9.53125 10.6364C11.0722 10.6364 12.4869 10.2307 13.7756 9.41932C15.0642 8.60795 16.0494 7.51364 16.7313 6.13636C16.0494 4.75909 15.0642 3.66477 13.7756 2.85341C12.4869 2.04205 11.0722 1.63636 9.53125 1.63636C7.99034 1.63636 6.57557 2.04205 5.28693 2.85341C3.9983 3.66477 3.01307 4.75909 2.33125 6.13636C3.01307 7.51364 3.9983 8.60795 5.28693 9.41932C6.57557 10.2307 7.99034 10.6364 9.53125 10.6364Z" fill="#9D7F19"/>
</svg>
