<svg width="27" height="27" viewBox="0 0 27 27" fill="none" xmlns="http://www.w3.org/2000/svg">
<g id="Frame" clip-path="url(#clip0_1275_746)">
<path id="Vector" d="M26.9127 13.7742C26.9127 20.948 21.0975 26.7633 13.9237 26.7633C6.74985 26.7633 0.93457 20.948 0.93457 13.7742C0.93457 6.60043 6.74985 0.785156 13.9237 0.785156C21.0975 0.785156 26.9127 6.60043 26.9127 13.7742Z" fill="#9D7F19"/>
<g id="Group">
<path id="Vector_2" d="M9.32315 10.302C10.2471 10.302 10.9961 9.55302 10.9961 8.62905C10.9961 7.70508 10.2471 6.95605 9.32315 6.95605C8.39918 6.95605 7.65015 7.70508 7.65015 8.62905C7.65015 9.55302 8.39918 10.302 9.32315 10.302Z" fill="white"/>
<path id="Vector_3" d="M10.5927 11.417H8.05407C7.98511 11.417 7.9292 11.4729 7.9292 11.5419V19.6564C7.9292 19.7254 7.98511 19.7813 8.05407 19.7813H10.5927C10.6616 19.7813 10.7175 19.7254 10.7175 19.6564V11.5419C10.7175 11.4729 10.6616 11.417 10.5927 11.417Z" fill="white"/>
<path id="Vector_4" d="M20.1973 14.4847V19.2245C20.1973 19.5311 19.9463 19.7822 19.6397 19.7822H17.9667C17.66 19.7822 17.409 19.5311 17.409 19.2245V15.3208C17.409 14.5513 16.7847 13.927 16.0152 13.927C15.2457 13.927 14.6213 14.5513 14.6213 15.3208V19.2245C14.6213 19.5311 14.3703 19.7822 14.0637 19.7822H12.3907C12.084 19.7822 11.833 19.5311 11.833 19.2245V11.9748C11.833 11.6682 12.084 11.4172 12.3907 11.4172H14.0637C14.3703 11.4172 14.6213 11.6682 14.6213 11.9748V12.3318C15.179 11.6094 16.1021 11.1387 17.1305 11.1387C18.6695 11.1387 20.1973 12.254 20.1973 14.4847Z" fill="white"/>
</g>
</g>
<defs>
<clipPath id="clip0_1275_746">
<rect width="25.9782" height="25.9782" fill="white" transform="translate(0.93457 0.785156)"/>
</clipPath>
</defs>
</svg>
