<svg width="27" height="27" viewBox="0 0 27 27" fill="none" xmlns="http://www.w3.org/2000/svg">
<g id="Frame" clip-path="url(#clip0_1275_752)">
<path id="Vector" d="M26.9345 13.7742C26.9345 20.948 21.1192 26.7633 13.9454 26.7633C6.77158 26.7633 0.956299 20.948 0.956299 13.7742C0.956299 6.60043 6.77158 0.785156 13.9454 0.785156C21.1192 0.785156 26.9345 6.60043 26.9345 13.7742Z" fill="#9D7F19"/>
<path id="Vector_2" d="M17.4697 6.96094H10.4214C8.60527 6.96094 7.13232 8.43388 7.13232 10.25V17.2983C7.13232 19.1145 8.60527 20.5874 10.4214 20.5874H17.4697C19.2859 20.5874 20.7588 19.1145 20.7588 17.2983V10.25C20.7588 8.43388 19.2859 6.96094 17.4697 6.96094ZM19.584 17.063C19.584 18.36 18.5314 19.4126 17.2344 19.4126H10.6561C9.35906 19.4126 8.3065 18.36 8.3065 17.063V10.4848C8.3065 9.18767 9.35906 8.13511 10.6561 8.13511H17.2344C18.5314 8.13511 19.584 9.18767 19.584 10.4848V17.063Z" fill="white"/>
<path id="Vector_3" d="M13.9518 10.25C12.0068 10.25 10.428 11.8289 10.428 13.7738C10.428 15.7188 12.0068 17.2976 13.9518 17.2976C15.8968 17.2976 17.4756 15.7188 17.4756 13.7738C17.4756 11.8289 15.8968 10.25 13.9518 10.25ZM13.9518 16.1235C12.6573 16.1235 11.6021 15.0683 11.6021 13.7738C11.6021 12.4794 12.6573 11.4242 13.9518 11.4242C15.2463 11.4242 16.3014 12.4794 16.3014 13.7738C16.3014 15.0683 15.2463 16.1235 13.9518 16.1235Z" fill="white"/>
<path id="Vector_4" d="M17.7111 10.7201C18.1003 10.7201 18.4159 10.4045 18.4159 10.0153C18.4159 9.62608 18.1003 9.31055 17.7111 9.31055C17.3219 9.31055 17.0063 9.62608 17.0063 10.0153C17.0063 10.4045 17.3219 10.7201 17.7111 10.7201Z" fill="white"/>
</g>
<defs>
<clipPath id="clip0_1275_752">
<rect width="25.9782" height="25.9782" fill="white" transform="translate(0.956299 0.785156)"/>
</clipPath>
</defs>
</svg>
