<svg width="15" height="13" viewBox="0 0 15 13" fill="none" xmlns="http://www.w3.org/2000/svg">
<path id="Vector" d="M14.2185 5.81389V11.5556C14.2185 11.9528 14.0723 12.2928 13.7799 12.5757C13.4875 12.8586 13.136 13 12.7255 13H2.27453C1.86395 13 1.51248 12.8586 1.2201 12.5757C0.927724 12.2928 0.781536 11.9528 0.781536 11.5556V5.81389C0.495379 5.56111 0.27454 5.23611 0.11902 4.83889C-0.0364996 4.44167 -0.03961 4.00833 0.109689 3.53889L0.89351 1.08333C0.993043 0.77037 1.17034 0.511574 1.42539 0.306944C1.68044 0.102315 1.97593 0 2.31185 0H12.6881C13.0241 0 13.3164 0.0993056 13.5653 0.297917C13.8141 0.496528 13.9945 0.758333 14.1065 1.08333L14.8903 3.53889C15.0396 4.00833 15.0365 4.43565 14.881 4.82083C14.7255 5.20602 14.5046 5.53704 14.2185 5.81389ZM9.14229 5.05556C9.47821 5.05556 9.73327 4.94421 9.90745 4.72153C10.0816 4.49884 10.1501 4.24907 10.1127 3.97222L9.70216 1.44444H8.2465V4.11667C8.2465 4.36944 8.33359 4.58912 8.50777 4.77569C8.68195 4.96227 8.89346 5.05556 9.14229 5.05556ZM5.78306 5.05556C6.06922 5.05556 6.3025 4.96227 6.4829 4.77569C6.6633 4.58912 6.7535 4.36944 6.7535 4.11667V1.44444H5.29784L4.88726 3.97222C4.8375 4.26111 4.90282 4.51389 5.08322 4.73056C5.26362 4.94722 5.4969 5.05556 5.78306 5.05556ZM2.46115 5.05556C2.6851 5.05556 2.88106 4.97731 3.04902 4.82083C3.21698 4.66435 3.31962 4.46574 3.35695 4.225L3.76752 1.44444H2.31185L1.56536 3.86389C1.49071 4.10463 1.53114 4.36343 1.68666 4.64028C1.84218 4.91713 2.10035 5.05556 2.46115 5.05556ZM12.5388 5.05556C12.8997 5.05556 13.1609 4.91713 13.3227 4.64028C13.4844 4.36343 13.5217 4.10463 13.4346 3.86389L12.6508 1.44444H11.2325L11.6431 4.225C11.6804 4.46574 11.783 4.66435 11.951 4.82083C12.1189 4.97731 12.3149 5.05556 12.5388 5.05556ZM2.27453 11.5556H12.7255V6.46389C12.6633 6.48796 12.6228 6.5 12.6042 6.5H12.5388C12.2029 6.5 11.9074 6.44583 11.6524 6.3375C11.3973 6.22917 11.1454 6.05463 10.8966 5.81389C10.6726 6.03056 10.4176 6.19907 10.1314 6.31944C9.84524 6.43982 9.54042 6.5 9.21694 6.5C8.88102 6.5 8.56687 6.43982 8.27449 6.31944C7.98211 6.19907 7.72395 6.03056 7.5 5.81389C7.28849 6.03056 7.04277 6.19907 6.76284 6.31944C6.4829 6.43982 6.18119 6.5 5.85771 6.5C5.4969 6.5 5.17031 6.43982 4.87793 6.31944C4.58556 6.19907 4.32739 6.03056 4.10344 5.81389C3.84217 6.06667 3.58401 6.24421 3.32895 6.34653C3.0739 6.44884 2.78463 6.5 2.46115 6.5H2.37717C2.34607 6.5 2.31185 6.48796 2.27453 6.46389V11.5556Z" fill="#9D7F19"/>
</svg>
