<svg width="25" height="24" viewBox="0 0 25 24" fill="none" xmlns="http://www.w3.org/2000/svg">
<g id="pool_FILL0_wght400_GRAD0_opsz24">
<path id="Vector" d="M3.5 20V18.2222C4.07 18.2222 4.4975 18.0741 4.7825 17.7778C5.0675 17.4815 5.63 17.3333 6.47 17.3333C7.31 17.3333 7.8875 17.4815 8.2025 17.7778C8.5175 18.0741 8.945 18.2222 9.485 18.2222C10.025 18.2222 10.4525 18.0741 10.7675 17.7778C11.0825 17.4815 11.66 17.3333 12.5 17.3333C13.34 17.3333 13.9175 17.4815 14.2325 17.7778C14.5475 18.0741 14.975 18.2222 15.515 18.2222C16.055 18.2222 16.4825 18.0741 16.7975 17.7778C17.1125 17.4815 17.69 17.3333 18.53 17.3333C19.37 17.3333 19.9325 17.4815 20.2175 17.7778C20.5025 18.0741 20.93 18.2222 21.5 18.2222V20C20.615 20 20.0338 19.8519 19.7563 19.5556C19.4788 19.2593 19.07 19.1111 18.53 19.1111C17.99 19.1111 17.5625 19.2593 17.2475 19.5556C16.9325 19.8519 16.355 20 15.515 20C14.675 20 14.0975 19.8519 13.7825 19.5556C13.4675 19.2593 13.04 19.1111 12.5 19.1111C11.96 19.1111 11.5325 19.2593 11.2175 19.5556C10.9025 19.8519 10.325 20 9.485 20C8.645 20 8.0675 19.8519 7.7525 19.5556C7.4375 19.2593 7.01 19.1111 6.47 19.1111C5.93 19.1111 5.52125 19.2593 5.24375 19.5556C4.96625 19.8519 4.385 20 3.5 20ZM3.5 16V14.2222C4.07 14.2222 4.4975 14.0741 4.7825 13.7778C5.0675 13.4815 5.63 13.3333 6.47 13.3333C7.31 13.3333 7.89125 13.4815 8.21375 13.7778C8.53625 14.0741 8.96 14.2222 9.485 14.2222C10.025 14.2222 10.4525 14.0741 10.7675 13.7778C11.0825 13.4815 11.66 13.3333 12.5 13.3333C13.34 13.3333 13.9175 13.4815 14.2325 13.7778C14.5475 14.0741 14.975 14.2222 15.515 14.2222C16.055 14.2222 16.4825 14.0741 16.7975 13.7778C17.1125 13.4815 17.69 13.3333 18.53 13.3333C19.37 13.3333 19.9325 13.4815 20.2175 13.7778C20.5025 14.0741 20.93 14.2222 21.5 14.2222V16C20.615 16 20.0338 15.8519 19.7563 15.5556C19.4788 15.2593 19.07 15.1111 18.53 15.1111C17.99 15.1111 17.5738 15.2593 17.2813 15.5556C16.9888 15.8519 16.4 16 15.515 16C14.66 16 14.0788 15.8519 13.7713 15.5556C13.4638 15.2593 13.04 15.1111 12.5 15.1111C11.93 15.1111 11.5063 15.2593 11.2288 15.5556C10.9513 15.8519 10.37 16 9.485 16C8.6 16 8.01125 15.8519 7.71875 15.5556C7.42625 15.2593 7.01 15.1111 6.47 15.1111C5.93 15.1111 5.52125 15.2593 5.24375 15.5556C4.96625 15.8519 4.385 16 3.5 16ZM7.91 11.4667L10.9025 8.51111L10.0025 7.62222C9.5075 7.13333 8.9825 6.77778 8.4275 6.55556C7.8725 6.33333 7.19 6.22222 6.38 6.22222V4C7.505 4 8.435 4.12222 9.17 4.36667C9.905 4.61111 10.625 5.08148 11.33 5.77778L17.09 11.4667C16.835 11.6296 16.5875 11.7593 16.3475 11.8556C16.1075 11.9519 15.83 12 15.515 12C14.975 12 14.5475 11.8519 14.2325 11.5556C13.9175 11.2593 13.34 11.1111 12.5 11.1111C11.66 11.1111 11.0825 11.2593 10.7675 11.5556C10.4525 11.8519 10.025 12 9.485 12C9.17 12 8.8925 11.9519 8.6525 11.8556C8.4125 11.7593 8.165 11.6296 7.91 11.4667ZM16.73 4C17.36 4 17.8925 4.21852 18.3275 4.65556C18.7625 5.09259 18.98 5.61481 18.98 6.22222C18.98 6.84444 18.7625 7.37037 18.3275 7.8C17.8925 8.22963 17.36 8.44444 16.73 8.44444C16.1 8.44444 15.5675 8.22963 15.1325 7.8C14.6975 7.37037 14.48 6.84444 14.48 6.22222C14.48 5.61481 14.6975 5.09259 15.1325 4.65556C15.5675 4.21852 16.1 4 16.73 4Z" fill="#9D7F19"/>
</g>
</svg>
