<svg width="16" height="16" viewBox="0 0 16 16" fill="none" xmlns="http://www.w3.org/2000/svg">
<path id="Vector" d="M13.997 15.2676L10.1154 11.386C9.62877 11.7752 9.0692 12.0834 8.43665 12.3105C7.8041 12.5376 7.13099 12.6511 6.41734 12.6511C4.64943 12.6511 3.1532 12.0388 1.92864 10.8142C0.704077 9.58969 0.0917969 8.09345 0.0917969 6.32554C0.0917969 4.55764 0.704077 3.0614 1.92864 1.83684C3.1532 0.61228 4.64943 0 6.41734 0C8.18525 0 9.68149 0.61228 10.906 1.83684C12.1306 3.0614 12.7429 4.55764 12.7429 6.32554C12.7429 7.0392 12.6294 7.7123 12.4023 8.34485C12.1752 8.97741 11.867 9.53698 11.4778 10.0236L15.3594 13.9052L13.997 15.2676ZM6.41734 10.7048C7.63379 10.7048 8.66778 10.279 9.51929 9.4275C10.3708 8.57598 10.7966 7.542 10.7966 6.32554C10.7966 5.10909 10.3708 4.07511 9.51929 3.22359C8.66778 2.37208 7.63379 1.94632 6.41734 1.94632C5.20089 1.94632 4.16691 2.37208 3.31539 3.22359C2.46388 4.07511 2.03812 5.10909 2.03812 6.32554C2.03812 7.542 2.46388 8.57598 3.31539 9.4275C4.16691 10.279 5.20089 10.7048 6.41734 10.7048Z" fill="#DADADA"/>
</svg>
