<svg width="22" height="21" viewBox="0 0 22 21" fill="none" xmlns="http://www.w3.org/2000/svg">
<g id="sports_tennis_FILL0_wght400_GRAD0_opsz24">
<path id="Vector" d="M3.49687 17.5003L2.25 16.2753L5.8375 12.6878C6.28958 12.2358 6.59948 11.6707 6.76719 10.9925C6.9349 10.3144 7.01875 9.27534 7.01875 7.87534C7.01875 7.02951 7.20833 6.19826 7.5875 5.38159C7.96667 4.56492 8.50625 3.80659 9.20625 3.10659C10.5333 1.77951 11.999 1.02847 13.6031 0.853465C15.2073 0.678465 16.5271 1.12326 17.5625 2.18784C18.6125 3.23784 19.05 4.56492 18.875 6.16909C18.7 7.77326 17.9563 9.23159 16.6438 10.5441C15.9437 11.2441 15.1854 11.7837 14.3687 12.1628C13.5521 12.542 12.7208 12.7316 11.875 12.7316C10.4604 12.7316 9.425 12.8118 8.76875 12.9722C8.1125 13.1326 7.55104 13.4462 7.08437 13.9128L3.49687 17.5003ZM9.5125 10.1941C10.1979 10.8649 11.124 11.1128 12.2906 10.9378C13.4573 10.7628 14.5 10.216 15.4187 9.29722C16.3521 8.36388 16.9099 7.31753 17.0922 6.15815C17.2745 4.99878 17.0229 4.09097 16.3375 3.43472C15.6375 2.73471 14.7224 2.47221 13.5922 2.64722C12.462 2.82222 11.4229 3.37638 10.475 4.30972C9.55625 5.22847 8.99844 6.26753 8.80156 7.4269C8.60469 8.58628 8.84167 9.50867 9.5125 10.1941ZM16.25 20.1253C15.2875 20.1253 14.4635 19.7826 13.7781 19.0972C13.0927 18.4118 12.75 17.5878 12.75 16.6253C12.75 15.6628 13.0927 14.8389 13.7781 14.1535C14.4635 13.468 15.2875 13.1253 16.25 13.1253C17.2125 13.1253 18.0365 13.468 18.7219 14.1535C19.4073 14.8389 19.75 15.6628 19.75 16.6253C19.75 17.5878 19.4073 18.4118 18.7219 19.0972C18.0365 19.7826 17.2125 20.1253 16.25 20.1253ZM16.25 18.3753C16.7312 18.3753 17.1432 18.204 17.4859 17.8613C17.8286 17.5186 18 17.1066 18 16.6253C18 16.1441 17.8286 15.7321 17.4859 15.3894C17.1432 15.0467 16.7312 14.8753 16.25 14.8753C15.7688 14.8753 15.3568 15.0467 15.0141 15.3894C14.6714 15.7321 14.5 16.1441 14.5 16.6253C14.5 17.1066 14.6714 17.5186 15.0141 17.8613C15.3568 18.204 15.7688 18.3753 16.25 18.3753Z" fill="#9D7F19"/>
</g>
</svg>
