<svg width="30" height="17" viewBox="0 0 30 17" fill="none" xmlns="http://www.w3.org/2000/svg">
<path d="M8.18182 16.3636C5.90909 16.3636 3.97727 15.5682 2.38636 13.9773C0.795454 12.3864 0 10.4545 0 8.18182C0 5.90909 0.795454 3.97727 2.38636 2.38636C3.97727 0.795454 5.90909 0 8.18182 0C9.68182 0 11.0568 0.375 12.3068 1.125C13.5568 1.875 14.5455 2.86364 15.2727 4.09091H30V12.2727H27.2727V16.3636H19.0909V12.2727H15.2727C14.5455 13.5 13.5568 14.4886 12.3068 15.2386C11.0568 15.9886 9.68182 16.3636 8.18182 16.3636ZM8.18182 13.6364C9.68182 13.6364 10.8864 13.1761 11.7955 12.2557C12.7045 11.3352 13.25 10.4318 13.4318 9.54545H21.8182V13.6364H24.5455V9.54545H27.2727V6.81818H13.4318C13.25 5.93182 12.7045 5.02841 11.7955 4.10795C10.8864 3.1875 9.68182 2.72727 8.18182 2.72727C6.68182 2.72727 5.39773 3.26136 4.32955 4.32955C3.26136 5.39773 2.72727 6.68182 2.72727 8.18182C2.72727 9.68182 3.26136 10.9659 4.32955 12.0341C5.39773 13.1023 6.68182 13.6364 8.18182 13.6364ZM8.18182 10.9091C8.93182 10.9091 9.57386 10.642 10.108 10.108C10.642 9.57386 10.9091 8.93182 10.9091 8.18182C10.9091 7.43182 10.642 6.78977 10.108 6.25568C9.57386 5.72159 8.93182 5.45455 8.18182 5.45455C7.43182 5.45455 6.78977 5.72159 6.25568 6.25568C5.72159 6.78977 5.45455 7.43182 5.45455 8.18182C5.45455 8.93182 5.72159 9.57386 6.25568 10.108C6.78977 10.642 7.43182 10.9091 8.18182 10.9091Z" fill="#9D7F19"/>
</svg>
