<svg width="27" height="27" viewBox="0 0 27 27" fill="none" xmlns="http://www.w3.org/2000/svg">
<g id="Frame" clip-path="url(#clip0_1275_743)">
<path id="Vector" d="M26.8908 13.7742C26.8908 20.948 21.0755 26.7633 13.9017 26.7633C6.72787 26.7633 0.912598 20.948 0.912598 13.7742C0.912598 6.60043 6.72787 0.785156 13.9017 0.785156C21.0755 0.785156 26.8908 6.60043 26.8908 13.7742Z" fill="#9D7F19"/>
<path id="Vector_2" d="M19.4998 8.27051H8.30466C7.19849 8.27051 6.30151 9.16748 6.30151 10.273V17.2749C6.30151 18.381 7.19849 19.2774 8.30466 19.2774H19.4998C20.6053 19.2774 21.5023 18.381 21.5023 17.2749V10.273C21.5023 9.16748 20.6053 8.27051 19.4998 8.27051ZM15.7001 14.2571L12.5868 15.813C12.2273 15.9928 11.8049 15.732 11.8049 15.3306V12.2186C11.8049 11.8172 12.2279 11.5564 12.5868 11.7355L15.7001 13.2915C16.0976 13.4902 16.0976 14.0583 15.7001 14.2571Z" fill="white"/>
</g>
<defs>
<clipPath id="clip0_1275_743">
<rect width="25.9782" height="25.9782" fill="white" transform="translate(0.912598 0.785156)"/>
</clipPath>
</defs>
</svg>
